<svg width="33" height="33" viewBox="0 0 33 33" fill="none" xmlns="http://www.w3.org/2000/svg">
<path d="M16.0035 21.519C18.1512 21.519 19.8923 19.7779 19.8923 17.6301C19.8923 15.4823 18.1512 13.7412 16.0035 13.7412C13.8557 13.7412 12.1146 15.4823 12.1146 17.6301C12.1146 19.7779 13.8557 21.519 16.0035 21.519Z" stroke="white" stroke-width="1.73232"/>
<path d="M13.1231 28.0004H18.8839C22.9296 28.0004 24.9531 28.0004 26.4063 27.0476C27.0335 26.6369 27.5735 26.1065 27.9955 25.4869C28.9665 24.061 28.9665 22.0737 28.9665 18.1019C28.9665 14.13 28.9665 12.1428 27.9955 10.7169C27.5735 10.0972 27.0335 9.56687 26.4063 9.15613C25.473 8.54298 24.3037 8.32391 22.5135 8.24613C21.6592 8.24613 20.9242 7.61094 20.757 6.7878C20.6292 6.18485 20.2972 5.64451 19.817 5.2581C19.3368 4.87169 18.738 4.66292 18.1217 4.66705H13.8854C12.6046 4.66705 11.5015 5.55502 11.25 6.7878C11.0828 7.61094 10.3478 8.24613 9.4935 8.24613C7.70461 8.32391 6.53534 8.54428 5.60071 9.15613C4.974 9.56701 4.4344 10.0974 4.01275 10.7169C3.04053 12.1428 3.04053 14.1287 3.04053 18.1019C3.04053 22.075 3.04053 24.0597 4.01145 25.4869C4.43145 26.1039 4.97071 26.6341 5.60071 27.0476C7.05386 28.0004 9.07738 28.0004 13.1231 28.0004Z" stroke="white" stroke-width="1.73232"/>
<path d="M25.077 13.7412H23.7807" stroke="white" stroke-width="1.73232" stroke-linecap="round"/>
</svg>
