<svg width="20" height="20" viewBox="0 0 20 20" fill="none" xmlns="http://www.w3.org/2000/svg">
<path d="M4.1669 6.6665L8.33357 13.3332M15.6019 17.0832C16.8453 14.9296 17.4999 12.4866 17.4999 9.99984C17.4999 7.51307 16.8453 5.07011 15.6019 2.9165M11.9936 14.9998C12.8713 13.4796 13.3333 11.7552 13.3333 9.99984C13.3333 8.24447 12.8713 6.52003 11.9936 4.99984M8.27357 13.3332C8.85869 12.3197 9.16673 11.1701 9.16673 9.99984C9.16673 8.82959 8.85869 7.67997 8.27357 6.6665M4.2269 13.3332C3.64178 12.3197 3.33374 11.1701 3.33374 9.99984C3.33374 8.82959 3.64178 7.67997 4.2269 6.6665" stroke="#1C75BC" stroke-width="1.66667" stroke-linecap="round"/>
</svg>
