<svg width="33" height="33" viewBox="0 0 33 33" fill="none" xmlns="http://www.w3.org/2000/svg">
<path d="M6.80557 10.8877L13.6111 21.7766M25.4827 27.9016C27.5136 24.384 28.5828 20.3939 28.5828 16.3321C28.5828 12.2704 27.5136 8.28025 25.4827 4.7627M19.5891 24.4988C21.0227 22.0158 21.7774 19.1992 21.7774 16.3321C21.7774 13.465 21.0227 10.6485 19.5891 8.16547M13.5131 21.7766C14.4688 20.1213 14.972 18.2435 14.972 16.3321C14.972 14.4207 14.4688 12.543 13.5131 10.8877M6.90357 21.7766C5.94787 20.1213 5.44473 18.2435 5.44473 16.3321C5.44473 14.4207 5.94787 12.543 6.90357 10.8877" stroke="white" stroke-width="2.72222" stroke-linecap="round"/>
</svg>
