<svg width="24" height="24" viewBox="0 0 24 24" fill="none" xmlns="http://www.w3.org/2000/svg">
<g clip-path="url(#clip0_737_3984)">
<circle cx="12" cy="12" r="11" stroke="#1FAA70" stroke-width="2"/>
<path d="M8.00024 6.66683V17.3331C8.00021 17.4517 8.03183 17.5682 8.09183 17.6705C8.15183 17.7728 8.23805 17.8573 8.34158 17.9152C8.44512 17.973 8.56222 18.0023 8.68081 17.9998C8.7994 17.9973 8.91518 17.9632 9.01621 17.9011L17.6825 12.5679C17.7796 12.5083 17.8598 12.4248 17.9154 12.3253C17.971 12.2259 18.0002 12.1139 18.0002 12C18.0002 11.886 17.971 11.774 17.9154 11.6746C17.8598 11.5752 17.7796 11.4916 17.6825 11.432L9.01621 6.09885C8.91518 6.0367 8.7994 6.00262 8.68081 6.00015C8.56222 5.99767 8.44512 6.02688 8.34158 6.08476C8.23805 6.14264 8.15183 6.2271 8.09183 6.32942C8.03183 6.43174 8.00021 6.54821 8.00024 6.66683Z" fill="#1FAA70"/>
</g>
<defs>
<clipPath id="clip0_737_3984">
<rect width="24" height="24" fill="white"/>
</clipPath>
</defs>
</svg>
