<svg width="24" height="24" viewBox="0 0 24 24" fill="none" xmlns="http://www.w3.org/2000/svg">
<path d="M3.5 13.4444C3.51268 12.4685 3.71698 11.5292 3.99692 10.6024C4.16815 10.0361 4.34368 9.47072 4.49384 8.89752C4.7124 8.06629 4.58715 7.28482 4.11787 6.55887C3.83226 6.11676 3.88005 5.72511 4.24946 5.3482C4.92078 4.66319 5.5927 3.97902 6.26522 3.29569C6.63916 2.91533 7.10799 2.90404 7.50843 3.24962C7.85587 3.54912 8.27238 3.70578 8.71404 3.7901C9.5174 3.94377 10.2972 3.87696 11.0356 3.49774C11.1694 3.42765 11.2951 3.34265 11.4104 3.24432C11.788 2.92638 12.2292 2.928 12.6024 3.24892C12.9508 3.54843 13.3657 3.70486 13.8074 3.7901C14.6109 3.94515 15.3905 3.87765 16.1289 3.49958C16.263 3.42999 16.3889 3.34496 16.504 3.24616C16.889 2.91786 17.3701 2.92201 17.727 3.28118C18.4276 3.98432 19.1243 4.69191 19.8171 5.40395C20.1178 5.71221 20.1593 6.14441 19.9258 6.5098C19.7045 6.85676 19.5326 7.224 19.456 7.63247C19.3693 8.09531 19.4178 8.55194 19.5398 8.99751C19.7224 9.66401 19.9303 10.3231 20.1235 10.9867C20.338 11.7239 20.4721 12.4761 20.4968 13.2458C20.5405 14.6155 20.1405 15.8503 19.387 16.9751C18.6812 18.03 17.7728 18.8783 16.7572 19.6118C15.3957 20.5965 13.9186 21.3579 12.3481 21.9373C12.1003 22.0295 11.8636 22.0157 11.6215 21.9242C9.89541 21.2713 8.27238 20.4235 6.80993 19.2766C5.84939 18.5228 5.00639 17.6565 4.38105 16.5887C3.95638 15.8635 3.67281 15.0852 3.56342 14.2466C3.52876 13.981 3.52038 13.7126 3.5 13.4444ZM5.20253 13.4444C5.21453 13.6204 5.21793 13.7976 5.24013 13.972C5.34137 14.7687 5.65393 15.4785 6.10894 16.1284C6.63803 16.8834 7.30006 17.502 8.02891 18.0496C9.18718 18.9193 10.4533 19.5893 11.7866 20.1366C11.8553 20.1673 11.9294 20.1832 12.0043 20.1835C12.0793 20.1838 12.1535 20.1684 12.2224 20.1383C13.5483 19.5941 14.8098 18.9294 15.9631 18.0648C16.7665 17.4621 17.4915 16.7785 18.0405 15.9206C18.5084 15.1896 18.7904 14.3964 18.8003 13.5156C18.8087 12.9745 18.7424 12.4349 18.6035 11.9126C18.4284 11.264 18.2282 10.6224 18.0389 9.97734C17.8695 9.39999 17.7358 8.81504 17.7164 8.21005C17.6978 7.61066 17.8059 7.0142 18.0334 6.46096C18.1179 6.25154 18.0787 6.07368 17.9202 5.91656C17.6973 5.69262 17.4774 5.46569 17.2552 5.24107C17.0858 5.06966 16.9277 5.03695 16.7116 5.13555C16.2202 5.3599 15.6964 5.50219 15.1604 5.55693C14.1412 5.66244 13.1619 5.52444 12.2387 5.05492C12.0815 4.97497 11.9332 4.97175 11.7757 5.05492C11.2095 5.35165 10.6039 5.51569 9.9722 5.56937C9.04902 5.64908 8.15415 5.52675 7.30255 5.13647C7.08376 5.03626 6.92567 5.06874 6.75761 5.23877C6.53271 5.46592 6.30962 5.69516 6.08494 5.92255C5.93613 6.07345 5.89151 6.24716 5.9735 6.44691C6.37099 7.41268 6.38119 8.40127 6.1214 9.39769C5.96761 9.98862 5.78302 10.5727 5.60772 11.1567C5.38418 11.9029 5.21272 12.6579 5.20253 13.4442V13.4444Z" fill="#4B5563"/>
<path d="M9.68683 14.9726C9.72919 14.7245 9.77246 14.4724 9.81527 14.2205C9.88074 13.8354 9.94349 13.4487 10.0137 13.0638C10.0257 12.9972 10.0067 12.9605 9.96252 12.9175C9.52093 12.4893 9.08055 12.0602 8.64138 11.6301C8.3965 11.3891 8.48281 10.9863 8.79746 10.9052C8.93882 10.8687 9.08652 10.8554 9.23172 10.8345C9.71968 10.764 10.2078 10.6945 10.696 10.6259C10.729 10.6231 10.7606 10.6111 10.7872 10.5913C10.8137 10.5716 10.8343 10.5448 10.8465 10.514C11.1079 9.97574 11.3759 9.44089 11.6393 8.90356C11.7238 8.73071 11.8457 8.61473 12.0471 8.6145C12.2485 8.61428 12.371 8.72777 12.4548 8.90152C12.7174 9.43908 12.9854 9.97393 13.2459 10.5126C13.2581 10.5433 13.2786 10.5701 13.3052 10.5897C13.3318 10.6094 13.3633 10.6212 13.3963 10.6238C13.94 10.701 14.4841 10.7789 15.0287 10.8574C15.0994 10.8674 15.1698 10.8801 15.2403 10.8923C15.4118 10.9231 15.5271 11.0219 15.5787 11.1868C15.6324 11.3592 15.5787 11.5057 15.4539 11.629C15.017 12.0565 14.5796 12.4834 14.1416 12.9096C14.0915 12.958 14.0698 13.0002 14.0829 13.0745C14.188 13.6709 14.2848 14.269 14.3906 14.8641C14.4232 15.0485 14.3865 15.2039 14.2376 15.3183C14.0888 15.4327 13.9259 15.434 13.7606 15.3468C13.2241 15.0646 12.6863 14.7846 12.1522 14.4989C12.0763 14.4586 12.021 14.4588 11.9451 14.4989C11.4205 14.7798 10.8936 15.0562 10.3662 15.3321C10.0731 15.4852 9.78446 15.3774 9.70541 15.0877C9.69702 15.0497 9.69082 15.0113 9.68683 14.9726Z" fill="#4B5563"/>
</svg>
