<svg width="24" height="24" viewBox="0 0 24 24" fill="none" xmlns="http://www.w3.org/2000/svg">
<g clip-path="url(#clip0_737_3928)">
<path d="M15.75 6H8.25C7.65326 6 7.08097 6.23705 6.65901 6.65901C6.23705 7.08097 6 7.65326 6 8.25V15.75C6 16.3467 6.23705 16.919 6.65901 17.341C7.08097 17.7629 7.65326 18 8.25 18H15.75C16.3467 18 16.919 17.7629 17.341 17.341C17.7629 16.919 18 16.3467 18 15.75V8.25C18 7.65326 17.7629 7.08097 17.341 6.65901C16.919 6.23705 16.3467 6 15.75 6Z" fill="#D63031"/>
<circle cx="12" cy="12" r="11" stroke="#D63031" stroke-width="2"/>
</g>
<defs>
<clipPath id="clip0_737_3928">
<rect width="24" height="24" fill="white"/>
</clipPath>
</defs>
</svg>
